<svg width="34" height="34" viewBox="0 0 34 34" fill="none" xmlns="http://www.w3.org/2000/svg">
<path d="M21.0364 11.4902C21.1064 11.5595 21.1619 11.6421 21.1995 11.7332C21.2372 11.8243 21.2562 11.9219 21.2556 12.0205C21.2555 12.2192 21.1765 12.4098 21.036 12.5504C20.8954 12.6909 20.7048 12.7699 20.5061 12.77L12.7703 12.77L12.7703 20.5058C12.7635 20.7 12.6815 20.8839 12.5417 21.0189C12.4019 21.1539 12.2151 21.2293 12.0208 21.2293C11.8265 21.2293 11.6397 21.1539 11.4999 21.0189C11.3601 20.8839 11.2781 20.7 11.2713 20.5058L11.2713 12.0205C11.2714 11.8217 11.3504 11.6312 11.4909 11.4906C11.6315 11.3501 11.8221 11.2711 12.0208 11.271H20.5061C20.6046 11.2703 20.7023 11.2894 20.7934 11.3271C20.8844 11.3647 20.9671 11.4202 21.0364 11.4902Z" fill="#9C9C9C"/>
<path d="M12.5512 11.4905L22.4507 21.39C22.5913 21.5306 22.6703 21.7214 22.6703 21.9203C22.6703 22.1192 22.5913 22.31 22.4507 22.4506C22.31 22.5913 22.1193 22.6703 21.9203 22.6703C21.7214 22.6703 21.5307 22.5913 21.39 22.4506L11.4905 12.5511C11.3499 12.4105 11.2709 12.2197 11.2709 12.0208C11.2709 11.8219 11.3499 11.6311 11.4905 11.4905C11.6312 11.3498 11.8219 11.2708 12.0209 11.2708C12.2198 11.2708 12.4105 11.3498 12.5512 11.4905Z" fill="#9C9C9C"/>
</svg>
