<svg width="20" height="20" viewBox="0 0 20 20" fill="none" xmlns="http://www.w3.org/2000/svg">
<path fill-rule="evenodd" clip-rule="evenodd" d="M19.6 10.2266C19.6 9.51752 19.5364 8.8357 19.4182 8.18115H10V12.0493H15.3818C15.15 13.2993 14.4455 14.3584 13.3864 15.0675V17.5766H16.6182C18.5091 15.8357 19.6 13.2721 19.6 10.2266Z" fill="#4285F4"/>
<path fill-rule="evenodd" clip-rule="evenodd" d="M9.9996 19.9994C12.6996 19.9994 14.9632 19.104 16.6178 17.5767L13.386 15.0676C12.4905 15.6676 11.3451 16.0221 9.9996 16.0221C7.39505 16.0221 5.19051 14.2631 4.40414 11.8994H1.06323V14.4903C2.70869 17.7585 6.09051 19.9994 9.9996 19.9994Z" fill="#34A853"/>
<path fill-rule="evenodd" clip-rule="evenodd" d="M4.40455 11.9012C4.20455 11.3012 4.09091 10.6603 4.09091 10.0012C4.09091 9.34207 4.20455 8.70116 4.40455 8.10116V5.51025H1.06364C0.386364 6.86025 0 8.38753 0 10.0012C0 11.6148 0.386364 13.1421 1.06364 14.4921L4.40455 11.9012Z" fill="#FBBC05"/>
<path fill-rule="evenodd" clip-rule="evenodd" d="M9.9996 3.97727C11.4678 3.97727 12.786 4.48182 13.8223 5.47273L16.6905 2.60455C14.9587 0.990909 12.6951 0 9.9996 0C6.09051 0 2.70869 2.24091 1.06323 5.50909L4.40414 8.1C5.19051 5.73636 7.39505 3.97727 9.9996 3.97727Z" fill="#EA4335"/>
</svg>
