<svg width="286" height="500" viewBox="0 0 286 500" fill="none" xmlns="http://www.w3.org/2000/svg">
<mask id="mask0_38_23451" style="mask-type:luminance" maskUnits="userSpaceOnUse" x="0" y="176" width="168" height="133">
<path d="M0 176.471H167.647V308.824H0V176.471Z" fill="white"/>
</mask>
<g mask="url(#mask0_38_23451)">
<mask id="mask1_38_23451" style="mask-type:luminance" maskUnits="userSpaceOnUse" x="1" y="177" width="166" height="130">
<path d="M164.729 182.985C163.304 187.535 162.098 192.176 159.57 196.209C156.79 200.643 153.309 204.148 149.15 206.802C144.221 209.95 139.177 212.902 134.283 216.119C131.181 218.153 127.861 218.968 124.38 219.279C110.857 220.508 97.3001 220.071 83.7661 219.876C82.847 219.864 81.9968 220.14 81.1811 220.427C70.5653 224.161 60.1333 228.504 50.023 233.743C43.7615 236.995 37.477 240.177 31.7325 244.52C24.0464 250.322 17.6011 257.606 11.9371 265.855C8.0308 271.553 4.5956 277.551 1.53954 283.87C1.3672 284.226 1.21784 284.616 1.1604 285.076C2.57354 284.26 3.50415 282.836 4.68751 281.767C7.16913 279.504 9.42097 276.93 11.8796 274.655C15.085 271.668 18.3364 268.739 21.7027 265.981C26.8957 261.707 32.0887 257.422 37.5 253.493C43.2445 249.322 49.012 245.186 55.2045 241.877C61.512 238.511 68.0377 235.754 74.8736 234.134C78.148 233.353 81.4568 232.778 84.8001 232.514C87.2702 232.307 89.7633 232.158 91.8543 234.41C90.0965 235.386 88.2927 236.432 86.443 237.385C80.6296 240.349 74.8047 243.279 68.9798 246.22C60.9605 250.276 52.8723 254.205 44.9104 258.41C39.1774 261.443 33.835 265.234 28.9407 269.842C22.886 275.54 17.9917 282.215 14.5795 290.257C12.7068 294.658 11.5349 299.288 10.8916 304.102C10.8111 304.722 10.8801 305.377 10.8801 306.514C12.8677 302.252 14.637 298.415 16.4522 294.612C18.2675 290.786 19.8989 286.845 22.2542 283.376C23.8281 281.055 25.6434 279.067 27.9642 277.688C32.3759 275.069 36.4315 271.829 40.5101 268.601C45.347 264.763 50.517 261.569 55.8939 258.766C59.9495 256.664 64.028 254.653 68.1756 252.815C71.7716 251.218 75.4711 249.989 79.1935 248.782C85.3516 246.772 91.4637 244.646 97.6563 242.808C105.584 240.453 113.523 238.178 121.427 235.731C127.746 233.778 133.651 230.722 139.246 226.85C142.532 224.586 145.485 221.91 148.392 219.072C153.068 214.488 156.767 209.042 159.972 203.183C161.857 199.736 163.454 196.082 164.085 191.946C164.798 187.293 165.832 182.698 166.716 178.079C166.602 178.01 166.487 177.953 166.372 177.884C165.82 179.584 165.257 181.273 164.729 182.985Z" fill="white"/>
</mask>
<g mask="url(#mask1_38_23451)">
<path d="M231.032 242.199L83.9385 389.292L-63.1548 242.199L83.9385 95.0942L231.032 242.199Z" fill="#636E72"/>
</g>
</g>
<mask id="mask2_38_23451" style="mask-type:luminance" maskUnits="userSpaceOnUse" x="188" y="164" width="65" height="336">
<path d="M188.235 164.706H252.941V500H188.235V164.706Z" fill="white"/>
</mask>
<g mask="url(#mask2_38_23451)">
<mask id="mask3_38_23451" style="mask-type:luminance" maskUnits="userSpaceOnUse" x="188" y="167" width="63" height="333">
<path d="M196.691 180.17C201.93 191.739 206.847 203.481 211.776 215.223C222.013 239.614 231.583 264.338 238.821 290.131C241.441 299.448 243.681 308.892 244.727 318.647C245.324 324.265 245.404 329.929 245.715 335.57C246.013 340.993 246.14 346.415 246.37 351.85C246.783 361.386 245.163 370.634 243.348 379.894C241.866 387.511 239.522 394.795 237.098 402.045C236.075 405.09 234.421 407.881 233.019 410.765C220.933 435.639 208.961 460.57 196.542 485.225C194.152 489.982 191.521 494.589 188.821 499.15C189.131 499.621 189.545 499.322 189.89 499.288C191.923 499.115 193.957 498.621 195.956 498.771C198.805 499 200.184 497.346 201.609 494.853C210.34 479.664 218.486 464.108 225.448 447.771C225.54 447.553 225.643 447.323 225.735 447.105C229.492 437.982 232.801 428.653 235.949 419.244C235.984 418.853 235.972 418.463 236.282 418.187C238.201 411.385 240.097 404.573 242.015 397.771C245.106 386.868 246.944 375.678 248.173 364.338C249.345 353.447 250.057 342.498 250.632 331.549C250.804 328.228 250.069 324.988 249.828 321.703C249.586 318.601 249.368 315.487 249.058 312.397C248.84 310.087 248.438 307.789 248.185 305.48C247.944 303.286 247.967 301.022 247.553 298.874C247.036 296.255 246.829 293.566 246.278 290.958C245.37 286.558 244.566 282.135 243.371 277.815C242.337 274.046 241.372 270.255 240.234 266.521C238.856 261.96 237.282 257.491 235.65 253.033C234.364 249.483 232.813 246.071 231.434 242.567C228.78 235.834 225.517 229.446 222.404 222.978C219.049 215.958 215.476 209.088 211.926 202.194C208.054 194.692 204.32 187.109 200.437 179.63C198.484 175.85 197.185 171.795 195.841 167.739C195.795 167.601 195.715 167.486 195.508 167.383C195.795 171.657 194.761 175.885 196.691 180.17Z" fill="white"/>
</mask>
<g mask="url(#mask3_38_23451)">
<path d="M416.923 333.502L219.819 530.618L22.7024 333.502L219.819 136.385L416.923 333.502Z" fill="#636E72"/>
</g>
</g>
<g clip-path="url(#clip0_38_23451)">
<mask id="mask4_38_23451" style="mask-type:luminance" maskUnits="userSpaceOnUse" x="41" y="0" width="224" height="218">
<path d="M41 0H264.529V217.647H41V0Z" fill="white"/>
</mask>
<g mask="url(#mask4_38_23451)">
<mask id="mask5_38_23451" style="mask-type:luminance" maskUnits="userSpaceOnUse" x="42" y="1" width="221" height="216">
<path d="M254.672 3.69942C253.776 4.20495 252.948 4.69898 251.914 4.51516C250.18 4.22792 248.836 4.99768 247.847 6.57168C246.986 7.90439 245.86 8.16863 244.424 8.27204C238.381 8.68563 232.337 8.94989 226.294 9.50136C223.307 9.7656 220.308 10.0299 217.31 10.2596C213.001 10.6043 208.704 11.2017 204.396 11.5349C201.937 11.7302 199.49 12.1208 197.043 12.1783C193.206 12.2587 190.138 14.3267 186.99 16.3028C182.912 18.8534 179.856 22.7022 176.742 26.5165C172.583 31.6062 168.458 36.7876 163.587 40.9926C158.429 45.4617 153.73 50.7353 147.663 53.7338C141.322 56.8817 134.888 59.8344 128.19 61.8335C126.558 62.3276 124.801 62.3162 123.066 62.3047C122.273 62.2932 121.48 62.2932 120.699 62.3276C120.423 61.6844 120.894 61.4888 121.136 61.2017C123.261 58.72 125.455 56.3303 127.707 53.9982C130.12 51.5164 130.131 49.5288 128.19 46.5532C127.431 45.3929 127.19 43.9453 127.087 42.4862C127.064 42.2679 127.121 42.0497 127.11 41.82C127.052 40.9697 126.156 39.9814 127.546 39.407C128.902 38.8556 130.143 38.3156 131.349 39.8782C132.475 41.3259 133.463 42.9112 134.623 44.6462C134.899 43.4741 134.463 42.5897 134.474 41.6706C134.532 38.442 133.486 35.9259 131.005 33.8923C124.835 28.8603 118.102 24.931 111.634 20.4963C106.912 17.2564 102.248 13.8557 97.3073 11.1098C91.1838 7.6976 84.8073 4.8828 78.5229 1.83821C77.7188 1.44759 76.9258 1.65439 76.1102 1.86119C75.467 2.03353 74.812 2.19437 74.1455 2.06799C75.6046 2.76882 77.0523 3.48113 78.5114 4.19345C90.0923 9.7656 101.57 15.5675 112.542 22.5988C116.207 24.9425 119.435 28.0216 122.939 30.6526C123.468 31.0547 123.996 31.5026 124.571 31.8014C125.226 32.1347 125.363 32.617 125.375 33.3756C125.386 34.2485 124.835 34.3291 124.364 34.5703C122.503 35.4894 120.711 36.5464 118.964 37.7182C116.689 39.2579 114.966 41.28 113.978 44.1291C112.427 48.5982 110.738 52.9985 109.176 57.4679C108.808 58.5247 108.613 58.8694 107.624 58.0423C96.6411 48.8741 85.4623 40.0047 74.2835 31.1582C71.7329 29.136 69.6994 26.3672 67.6199 23.7592C66.7812 22.7252 66.5514 21.1512 66.6778 19.5427C67.1259 13.7293 70.3887 9.5703 72.9738 4.98619C73.3299 4.3658 73.7894 4.37727 74.2491 4.38877C74.4902 4.40024 74.7314 4.40024 74.9499 4.33133C74.7891 3.69942 74.2032 3.60751 73.8355 3.3203C72.5602 2.30926 71.9626 2.53904 71.0435 4.00963C69.3547 6.70954 67.6084 9.37498 65.9425 12.0979C63.1507 16.6934 62.4154 21.7716 63.3575 27.1829C63.9894 30.8135 65.0004 34.3176 66.1838 37.7641C66.4135 38.4306 66.7237 38.9247 67.2293 39.3153C78.3964 48.2882 89.5294 57.3185 100.766 66.1994C102.719 67.7391 104.534 69.1406 104.821 72.0244C105.074 74.552 104.764 77.045 104.431 79.5153C104.27 80.6182 104.017 81.6864 103.879 82.7779C103.477 85.9259 101.317 87.7759 99.7547 90.0735C99.2491 90.8203 98.5711 91.452 98.1576 92.2564C96.8823 94.7956 94.6994 94.7265 92.5855 94.9332C90.5749 95.1285 88.5644 95.5997 86.5652 95.5079C83.6011 95.37 81.177 96.9667 78.6723 98.242C73.3529 100.954 67.7922 102.895 62.312 105.124C61.8754 105.296 61.4618 105.342 61.0252 105.342C56.1194 105.446 51.2251 105.595 46.3193 105.606C45.2394 105.606 44.6075 105.94 44.1249 107.02C43.5964 108.192 42.9186 109.271 42.2178 110.593C44.6305 111.087 46.7444 111.868 48.6286 113.546C49.766 114.568 50.329 115.763 50.7426 117.13C51.4664 119.439 52.5808 121.255 54.488 122.576C56.4411 123.92 58.2104 125.597 60.1061 127.171C60.5082 125.597 60.0602 124.586 59.1066 123.679C57.7968 122.426 56.7398 120.864 55.2692 119.796C53.5459 118.52 54.4191 116.59 54.4191 114.901C54.4191 114.591 54.5914 114.281 54.6144 113.959C54.7178 112.511 54.0514 110.765 56.2114 110.34C57.4866 110.087 58.5666 109.076 60.0602 109.547C61.3584 109.949 62.783 110.064 64.1272 109.938C66.6778 109.708 68.4241 111.144 70.136 112.959C72.112 115.062 74.1685 117.05 76.4091 119.29C75.892 116.245 75.4208 113.465 74.9385 110.696C74.5594 108.49 74.0882 106.296 73.9158 104.044C73.8585 103.24 73.9847 102.826 74.8464 102.872C75.2141 102.884 75.5817 102.884 75.9494 102.884C77.4314 102.861 78.8905 102.849 80.0741 104.343C80.4876 104.86 80.7861 105.296 80.7632 106.055C80.6944 110.087 80.7976 114.109 81.062 118.13C81.0849 118.451 81.0505 118.842 81.1999 119.083C82.682 121.392 84.1985 123.679 85.8758 125.885C84.6235 120.508 84.4973 115.119 84.7614 109.651C84.8302 108.111 85.3588 107.077 86.2664 106.284C91.0344 102.102 95.8482 97.9894 100.651 93.8764C102.707 92.13 104.879 90.5676 106.832 88.7065C107.728 87.8562 108.647 87.8791 109.589 87.902C109.865 87.9135 110.152 87.9135 110.439 87.8906C110.991 87.8561 110.864 88.4191 110.864 88.7523C110.887 92.0956 111.312 95.4159 110.807 98.7706C110.301 102.102 111.818 104.768 113.518 107.273C113.691 107.525 113.932 107.893 114.231 107.583C114.357 107.468 114.346 107.043 114.265 106.813C113.564 104.711 113.346 102.528 113.346 100.287C113.346 94.1864 113.541 88.0629 113.254 81.9738C113.128 79.1591 114.368 77.6079 115.92 76.1373C117.746 74.4026 119.527 72.6217 121.285 70.7835C123.181 68.8073 125.076 66.8429 127.052 64.97C128.282 63.8097 129.925 64.2464 131.372 63.982C134.486 63.4191 137.634 63.0629 140.77 62.6723C142.953 62.3964 145.228 62.2817 147.353 61.822C150.421 61.1673 153.385 59.7541 156.154 57.9044C160.543 54.9747 164.483 51.4362 168.378 47.7253C172.135 44.1406 175.846 40.4641 179.787 37.1323C183.141 34.2947 186.646 31.6979 190.092 28.9867C192.918 26.7578 195.664 24.3566 198.606 22.346C202.121 19.9563 205.982 18.4398 209.934 17.1875C213.243 16.142 216.551 15.1884 219.895 14.3612C223.824 13.3961 227.753 12.4081 231.717 11.5694C232.383 11.4315 233.096 11.4774 233.808 11.5234C234.29 11.5579 234.773 11.5924 235.256 11.5694C238.392 11.397 241.54 11.1443 244.676 10.9375C245.251 10.903 245.825 10.9375 246.446 10.9375C244.366 16.1879 241.345 20.4274 237.289 23.7707C234.176 26.3212 231.188 29.0556 228.109 31.7326C228.58 32.2726 229.074 32.1462 229.453 32.0541C230.993 31.6864 232.556 31.7097 234.118 31.7326C235.681 31.7556 237.243 31.7785 238.783 31.4109C238.84 31.3994 238.886 31.3879 238.943 31.3994C241.023 32.2035 241.689 30.3882 242.539 28.9062C245.458 23.7822 247.997 18.4168 250.651 13.1319C251.214 12.0174 251.868 11.2822 253.155 11.0983C252.581 14.3267 251.914 17.4632 251.478 20.6457C250.295 29.4232 245.262 34.5588 238.645 38.1435C236.588 39.2579 234.233 39.43 232.038 40.1538C229.189 41.1076 226.306 42.0726 224.123 44.5312C222.962 45.8409 222.468 47.7253 221.354 49.1729C220.021 50.8847 218.746 52.3897 216.551 52.5276C214.863 52.6194 213.197 52.9756 211.381 53.24C212.381 50.1379 213.863 47.5182 215.069 44.7494C215.437 43.8994 215.598 43.5547 214.748 42.9688C213.082 41.7967 213.162 41.7394 212.071 43.5891C209.141 48.5523 206.878 53.9753 203.822 58.8464C201.57 62.4312 198.801 65.4641 195.768 68.8073C195.653 64.3956 195.55 60.3976 195.469 56.3994C195.458 55.595 195.389 54.8829 194.745 54.3429C194.136 53.8259 193.884 53.5962 193.596 54.7335C192.103 60.5929 190.391 66.3832 188.966 72.2541C186.944 80.5606 183.785 88.2812 180.131 95.795C179.637 96.8062 178.776 96.8635 178.063 97.1623C177.248 97.5185 177.064 97.9779 177.029 98.8626C176.949 100.976 177.179 103.114 176.88 105.227C176.432 108.49 175.122 111.397 173.95 114.35C171.113 121.484 167.218 127.826 162.438 133.502C160.646 135.639 158.957 137.879 157.211 140.085C157.119 140.177 157.027 140.269 156.935 140.361C156.912 140.223 156.889 140.085 156.878 139.947C156.958 135.811 157.061 131.664 157.096 127.528C157.108 125.839 158.003 124.575 158.647 123.231C162.105 116.108 165.678 109.042 169.148 101.919C171.136 97.84 173.008 93.6812 174.892 89.5335C177.041 84.8576 179.155 80.1814 181.234 75.4594C181.993 73.7247 182.119 71.7947 182.314 69.8414C181.556 69.8529 181.326 70.5079 180.936 70.8756C175.628 75.9879 172.055 82.6747 168.171 89.0623C165.598 93.3135 163.093 97.6103 160.497 101.827C159.796 102.953 158.831 103.883 158.015 104.917C157.716 105.296 157.36 105.342 156.947 105.342C154.534 105.308 152.098 105.296 149.686 105.274C149.479 105.331 149.387 105.262 149.433 105.021C146.813 100.54 144.366 95.9214 141.506 91.6359C139.242 88.2238 139.92 84.6623 140.081 80.9741C140.207 78.2744 140.759 75.7009 141.299 73.0929C141.597 71.6567 141.965 70.232 142.712 68.9797C143.516 67.6356 143.585 66.2682 142.758 64.8782C142.493 64.4417 142.16 64.2003 141.77 64.3841C140.127 65.1538 138.22 65.2688 137.013 67.0726C136.542 67.785 135.956 68.4167 135.347 68.9797C131.751 72.3462 131.671 76.6888 132.728 81.2615C133.992 86.7417 135.818 92.0153 137.909 97.1276C139.047 99.8735 141.08 102.148 142.712 104.641C143.24 105.446 143.792 106.227 144.286 107.054C144.849 107.996 145.963 108.663 145.343 110.202C144.585 112.098 143.723 113.81 141.724 114.189C139.506 114.614 137.278 114.384 135.06 114.246C134.176 114.189 133.291 114.12 132.061 114.028C134.187 116.176 136.416 117.314 138.84 118.026C139.644 118.267 140.517 118.302 141.253 118.704C143.746 120.048 146.009 119.037 148.215 117.877C150.731 116.544 153.42 116.039 156.085 115.384C156.901 115.189 157.119 115.418 156.935 116.533C156.142 121.519 154.362 125.712 150.628 128.814C148.341 130.721 146.342 133.065 144.251 135.191C144.32 135.386 144.332 135.524 144.366 135.535C147.101 136.202 147.997 138.074 147.606 141.154C147.365 143.13 147.549 145.186 147.583 147.197C147.583 147.61 147.284 148.414 148.02 148.323C148.249 148.3 148.514 148.357 148.789 148.414C149.376 148.541 149.973 148.667 150.214 147.886C150.651 146.439 151.593 146.588 152.454 146.68C153.431 146.806 153.534 147.817 153.603 148.725C153.822 151.631 153.73 151.827 151.328 153.148C148.112 154.917 148.112 154.917 148.112 159.076C148.112 162.305 148.123 162.19 150.949 162.339C152.753 162.431 153.879 161.569 155.131 160.202C159.566 155.354 162.645 149.38 166.23 143.83C166.391 143.589 166.333 143.153 166.77 143.221C167.252 143.314 167.206 143.727 167.206 144.129C167.218 145.404 167.183 146.714 166.655 147.851C163.116 155.446 160.233 163.465 155.671 170.439C154.649 172.001 153.603 173.529 152.638 175.138C150.915 177.964 148.215 178.757 145.55 179.699C142.275 180.859 139.047 182.158 135.715 183.421C135.703 182.433 136.324 182.135 136.726 181.721C140.035 178.205 142.551 174.092 144.102 169.256C144.849 166.923 145.033 164.442 145.124 161.971C145.228 159.237 145.228 156.48 145.366 153.745C145.618 148.851 143.976 144.692 141.632 140.74C139.931 137.891 137.323 136.374 134.888 134.651C130.614 131.641 126.248 128.803 121.894 125.942C120.354 124.92 119.159 123.438 117.815 122.162C116.471 120.91 115.219 119.543 113.783 118.405C113.059 117.831 112.955 116.877 112.783 115.993C111.715 110.501 110.543 105.032 108.992 99.6667C108.865 99.2188 108.716 98.9314 108.452 98.5867C106.97 96.6912 105.051 95.3585 103.339 93.4741C102.684 95.4159 101.961 97.1506 101.777 99.2647C101.34 104.389 102.684 108.973 104.546 113.476C104.993 114.579 105.798 115.303 106.556 116.085C110.037 119.623 113.53 123.15 117.011 126.7C119.355 129.09 121.687 131.503 123.996 133.927C124.295 134.237 124.916 134.479 124.663 135.064C124.548 135.351 124.019 135.444 123.663 135.593C122.422 136.144 121.124 136.041 119.86 135.903C115.69 135.466 111.508 135.156 107.326 134.904C105.258 134.788 103.787 133.261 103.259 130.572C102.765 128.045 102.914 125.471 103.259 122.874C103.477 121.22 103.328 119.474 103.58 117.785C103.626 117.463 103.477 117.073 103.592 116.808C104.385 114.867 103.201 114.637 102.006 114.258C101.237 114.005 100.811 114.292 100.432 114.97C99.9958 115.763 99.5479 116.544 98.9273 117.624C98.1117 114.177 97.4796 110.949 97.4223 107.617C97.3879 105.825 97.3417 104.033 97.3417 102.24C97.3417 101.654 97.2958 101.172 96.7673 100.873C96.1585 100.517 96.032 101.206 95.6991 101.448C95.6529 101.471 95.6299 101.528 95.5841 101.562C91.2296 105.181 92.0341 110.374 92.5508 115.28C92.9299 118.807 94.9867 121.818 95.6414 125.345C96.2388 128.527 97.0661 131.641 97.652 134.823C97.9623 136.524 97.3649 138.235 97.2958 139.958C97.2729 140.809 96.5376 140.705 96.032 140.625C95.0326 140.476 94.6535 140.786 94.6994 142.027C94.7799 144.347 94.7338 144.129 97.652 144.612C100.754 145.129 102.776 142.969 105.108 141.487C106.223 140.786 107.038 140.039 108.704 140.82C111.864 142.302 114.736 144.347 117.746 146.128C118.918 146.829 119.998 146.68 121.147 146.806C121.4 146.829 121.641 146.806 121.894 146.806C122.181 146.795 122.503 146.829 122.813 146.852C123.537 146.909 124.272 146.979 124.789 146.622C125.352 146.232 125.226 144.715 125.639 143.83C126.604 141.774 127.96 140.269 130.292 141.981C134.67 145.221 137.197 149.541 137.151 155.606C137.117 160.03 137.381 164.465 137.151 168.876C136.933 173.035 134.922 176.39 132.142 178.987C125.49 185.202 118.045 190.166 110.807 195.416C101.685 202.022 92.4476 208.421 83.2679 214.913C83.0955 215.028 82.8773 215.085 82.7623 215.234C82.6014 215.43 82.1535 215.51 82.4291 215.947C82.6935 216.36 82.9805 216.004 83.1876 215.889C84.7155 215.131 86.232 214.304 87.7485 213.523C93.9526 210.317 100.122 207.066 106.361 203.964C111.025 201.654 115.575 199.092 120.182 196.68C121.848 195.806 123.663 196.036 125.386 195.749C128.81 195.186 132.096 194.026 135.451 193.199C138.714 192.394 141.896 191.268 145.078 190.085C147.663 189.12 150.019 187.799 151.961 185.627C155.223 181.962 158.613 178.389 161.175 174.058C163.966 169.347 165.943 164.109 167.873 158.869C170.975 150.517 173.33 141.889 175.869 133.318C177.133 129.078 178.224 124.77 179.396 120.485C179.339 120.278 179.339 119.933 179.511 119.968C179.821 120.025 179.626 120.324 179.58 120.531C180.361 128.021 178.121 134.949 176.685 142.073C175.536 147.76 172.744 152.424 170.366 157.364C169.711 158.732 170.09 160.087 169.998 161.443C169.964 161.926 170.435 162.029 170.768 162.086C172.043 162.305 173.307 162.132 174.582 161.949C175.605 161.811 176.627 161.661 177.661 161.73C177.799 161.742 177.994 161.512 178.098 161.351C180.131 157.514 182.085 153.676 182.567 149.092C183.44 140.901 183.245 132.663 183.521 124.449C183.762 117.337 183.796 110.225 183.911 103.114C183.946 101.034 184.67 99.1267 184.991 97.1162C185.623 93.187 186.68 89.3497 187.301 85.4206C187.611 83.4559 188.989 82.8126 190.001 81.8129C193.091 78.7685 196.331 75.942 199.502 73.0238C202.592 70.1862 205.694 67.3715 208.751 64.4876C210.451 62.8791 212.243 61.3741 213.828 59.6623C215.575 57.8009 217.746 57.077 219.791 56.0662C224.065 53.9753 228.431 52.0794 232.774 50.1379C235.956 48.7132 239.012 47.1047 241.793 44.7494C244.803 42.1991 247.078 39.0509 248.927 35.455C250.616 32.1576 252.431 28.9752 253.661 25.3676C255.453 20.0712 255.143 14.6369 255.131 9.19116C255.131 7.85845 255.005 7.01974 256.763 7.08869C258.383 7.1576 260.072 6.54869 261.772 6.52571C261.944 6.52571 262.186 6.4453 262.278 6.30742C263.001 5.19301 262.99 3.91771 262.703 2.67691C262.45 1.58546 261.623 1.48206 260.726 1.48206C258.486 1.48206 256.579 2.60798 254.672 3.69942Z" fill="white"/>
</mask>
<g mask="url(#mask5_38_23451)">
<path d="M370.459 108.904L152.604 326.759L-65.2388 108.904L152.604 -108.95L370.459 108.904Z" fill="url(#paint0_linear_38_23451)"/>
</g>
</g>
</g>
<mask id="mask6_38_23451" style="mask-type:luminance" maskUnits="userSpaceOnUse" x="100" y="170" width="95" height="289">
<path d="M100 170.588H194.118V458.824H100V170.588Z" fill="white"/>
</mask>
<g mask="url(#mask6_38_23451)">
<mask id="mask7_38_23451" style="mask-type:luminance" maskUnits="userSpaceOnUse" x="102" y="172" width="92" height="284">
<path d="M183.548 176.597C184.283 181.388 184.938 186.19 185.512 191.016C186.213 196.829 186.937 202.654 187.569 208.479C188.04 212.891 188.419 217.314 188.775 221.726C189.798 234.191 189.534 246.657 188.833 259.122C188.557 263.856 187.144 268.405 186.213 273.035C185.398 277.102 184.846 281.273 183.41 285.168C183.433 285.432 183.433 285.696 183.203 285.869C182.422 289.154 181.48 292.383 180.446 295.577C180.469 295.852 180.457 296.105 180.228 296.289C179.067 301.792 176.988 306.928 175.035 312.109C171.289 322.013 167.647 331.974 163.729 341.797C161.19 348.15 157.606 353.918 154.825 360.145C151 368.693 145.244 375.586 140.085 382.996C133.801 392.015 127.539 401.046 121.002 409.812C115.591 417.084 109.789 423.989 104.159 431.055C103.86 431.445 103.55 431.836 103.24 432.227L102.286 433.651C102.424 433.801 102.551 433.95 102.688 434.099C110.731 426.482 118.922 419.072 126.735 411.156C129.929 407.916 132.296 403.619 135.03 399.793C139.913 392.957 144.842 386.167 149.644 379.251C152.413 375.264 154.561 370.761 156.962 366.464C163.695 354.481 170.37 342.463 177.068 330.469C177.355 329.963 177.666 329.481 178.114 329.067C178.734 339.35 175.678 348.552 171.726 357.491C171.473 358.031 171.22 358.571 170.979 359.111C167.98 366.648 164.671 373.989 160.696 380.94C152.447 395.358 142.647 408.364 132.433 421.002C132.342 421.128 132.215 421.209 132.1 421.312L131.193 422.461C130.584 423.392 129.917 424.265 129.125 425C128.722 425.506 128.32 426.011 127.93 426.505C127.344 427.459 126.643 428.297 125.862 429.044C125.586 429.389 125.31 429.733 125.035 430.078C124.299 431.17 123.507 432.192 122.587 433.065C122.185 433.571 121.783 434.076 121.393 434.57C120.795 435.512 120.106 436.363 119.313 437.098C119.049 437.454 118.773 437.799 118.497 438.143C114.453 443.876 109.72 448.851 104.757 453.539C104.021 454.239 103.309 454.975 102.436 455.859C103.941 456.078 104.998 455.503 106.032 454.906C109.938 452.631 113.132 449.299 116.349 446.002C117.004 445.324 117.67 444.669 118.325 444.003C119.91 442.199 121.496 440.407 123.081 438.614L127.516 433.352C127.688 432.904 127.999 432.583 128.343 432.318C129.067 431.216 129.871 430.216 130.791 429.331C131.101 428.734 131.503 428.251 131.997 427.849C132.583 426.896 133.272 426.046 134.065 425.287C134.364 424.701 134.777 424.207 135.26 423.805C135.938 422.737 136.719 421.772 137.603 420.921C137.891 420.577 138.166 420.232 138.454 419.887C140.556 417.21 142.67 414.534 144.784 411.857C144.968 411.374 145.278 411.006 145.657 410.696C147.381 408.398 149.046 406.043 150.816 403.791C155.836 397.415 159.467 389.936 163.798 383.019C165.2 380.79 166.464 378.458 167.796 376.172L168.405 374.839C169.692 372.036 170.979 369.233 172.266 366.441C172.358 366.211 172.461 365.993 172.564 365.763C177.424 355.744 180.676 344.945 184.455 334.398C186.179 329.573 186.719 324.357 187.879 319.324C190.349 308.548 192.245 297.645 193.44 286.592C193.509 285.926 193.543 285.26 193.543 284.582C193.463 268.796 193.497 252.999 193.922 237.213C194.037 232.583 193.107 228.24 192.601 223.759C192.234 220.462 191.854 217.153 191.406 213.856C190.981 210.616 190.407 207.41 189.97 204.182C189.522 200.873 189.338 197.518 188.706 194.267C187.925 190.165 187.891 185.915 186.673 181.916C185.972 179.642 185.179 177.401 184.364 175.184C184.042 174.334 183.755 173.495 183.513 172.208C182.744 173.943 183.353 175.322 183.548 176.597Z" fill="white"/>
</mask>
<g mask="url(#mask7_38_23451)">
<path d="M335.972 314.143L148.162 501.953L-39.6484 314.143L148.162 126.333L335.972 314.143Z" fill="#636E72"/>
</g>
</g>
<mask id="mask8_38_23451" style="mask-type:luminance" maskUnits="userSpaceOnUse" x="61" y="167" width="119" height="245">
<path d="M61.7646 167.647H179.412V411.765H61.7646V167.647Z" fill="white"/>
</mask>
<g mask="url(#mask8_38_23451)">
<mask id="mask9_38_23451" style="mask-type:luminance" maskUnits="userSpaceOnUse" x="63" y="169" width="116" height="243">
<path d="M171.875 183.984C172.312 188.557 172.932 193.118 173.506 197.668C174.081 202.102 174.035 206.537 173.748 210.995C173.414 215.924 172.714 220.772 171.863 225.609C169.91 236.765 167.176 247.622 162.982 258.008C156.882 273.093 151.16 288.35 143.876 302.792C137.086 316.257 128.378 328.091 119.91 340.154C114.108 348.426 106.939 354.883 99.8851 361.546C90.533 370.37 81.1925 379.205 71.8635 388.04C71.3005 388.557 70.5882 388.89 70.2435 389.683C70.301 389.74 70.3584 389.809 70.4044 389.878C81.6521 382.284 92.601 374.207 102.895 365.051C105.377 362.845 107.64 360.329 110.007 357.95C110.237 357.56 110.524 357.215 110.926 357.02C111.811 355.882 112.81 354.86 113.867 353.929C114.108 353.527 114.384 353.182 114.786 352.987C126.149 339.752 135.96 325.138 144.979 309.812C147.438 305.618 149.23 301 151.356 296.588C153.194 292.773 154.986 288.925 156.813 285.099C156.916 284.869 157.02 284.651 157.123 284.432C158.709 281.066 160.283 277.711 161.857 274.345C161.96 274.115 162.075 273.897 162.178 273.679C163.752 270.312 165.338 266.946 166.912 263.58C167.015 263.362 167.119 263.143 167.222 262.914C167.911 261.466 168.589 260.007 169.278 258.548C169.382 258.341 169.347 257.996 169.669 258.031C169.704 258.031 169.704 258.41 169.727 258.617C169.876 266.728 168.198 274.449 165.797 282.02C165.016 284.478 164.166 286.926 163.097 289.258C163.005 289.488 162.914 289.706 162.822 289.936C162.144 291.475 161.454 293.026 160.777 294.577C160.662 294.818 160.547 295.06 160.432 295.312C157.33 302.137 153.596 308.502 149.575 314.66C144.956 321.714 140.108 328.55 134.766 334.938C134.467 335.317 134.168 335.708 133.869 336.087C133.192 337.167 132.399 338.12 131.514 338.971C131.204 339.35 130.905 339.729 130.595 340.108C129.239 341.981 127.757 343.727 126.16 345.358C125.781 346.036 125.287 346.576 124.724 347.059C122.564 349.759 120.289 352.332 117.911 354.791C117.233 355.538 116.556 356.296 115.878 357.054C114.051 359.18 112.19 361.282 110.191 363.189C109.834 363.752 109.409 364.2 108.892 364.568C107.824 365.889 106.687 367.13 105.434 368.233C105.09 368.784 104.653 369.233 104.124 369.577C102.298 371.726 100.345 373.736 98.3111 375.632C98.0468 376.057 97.7251 376.413 97.3 376.654C93.6695 380.584 89.9586 384.398 86.1098 388.063C85.8685 388.511 85.5238 388.833 85.1217 389.074C82.7895 391.659 80.3423 394.106 77.8377 396.473C77.3896 396.909 76.9416 397.358 76.505 397.806C74.8621 399.494 73.2192 401.172 71.5877 402.849C71.2201 403.401 70.7835 403.849 70.2665 404.205C69.5771 405.124 68.7844 405.928 67.9227 406.641C67.6125 406.951 67.3138 407.261 67.0036 407.571C66.119 408.663 65.1999 409.708 64.1429 410.581C64.005 410.788 63.8671 411.006 63.7178 411.225C63.8327 411.34 63.9361 411.443 64.051 411.558C76.4476 400.299 88.8786 389.074 101.068 377.516C110.765 368.336 120.473 359.168 130.181 349.988C130.331 349.851 130.503 349.747 130.675 349.632C131.02 349.288 131.365 348.932 131.71 348.587C135.742 343.44 139.798 338.316 143.819 333.157C148.989 326.517 153.987 319.727 158.892 312.845C163.224 306.778 166.533 300.092 168.853 292.773C168.911 292.567 169.026 292.383 169.106 292.199C169.141 291.808 169.141 291.406 169.439 291.131C171.323 284.134 172.955 277.057 174.069 269.841C175.747 258.881 177.78 247.978 178.55 236.857C178.906 231.721 178.63 226.562 178.665 221.415C178.699 217.762 178.343 214.143 177.999 210.558C177.573 206.135 176.93 201.712 176.333 197.289C175.62 191.935 174.368 186.73 173.575 181.399C173.001 177.528 172.036 173.736 171.243 169.899C171.094 169.876 170.944 169.864 170.783 169.841C171.14 174.552 171.415 179.285 171.875 183.984Z" fill="white"/>
</mask>
<g mask="url(#mask9_38_23451)">
<path d="M299.77 290.705L121.312 469.152L-57.1462 290.705L121.312 112.247L299.77 290.705Z" fill="#636E72"/>
</g>
</g>
<mask id="mask10_38_23451" style="mask-type:luminance" maskUnits="userSpaceOnUse" x="2" y="100" width="93" height="45">
<path d="M2.94116 100H94.1176V144.118H2.94116V100Z" fill="white"/>
</mask>
<g mask="url(#mask10_38_23451)">
<mask id="mask11_38_23451" style="mask-type:luminance" maskUnits="userSpaceOnUse" x="4" y="102" width="88" height="42">
<path d="M24.2651 103.378C24.8051 105.836 25.3681 108.272 25.8966 110.731C26.2757 112.431 25.3911 113.649 23.8171 113.844C21.5882 114.131 19.3364 114.12 17.096 114.108C15.9816 114.108 14.8672 114.108 13.7527 114.131C12.914 114.154 12.1213 113.913 11.4549 113.408C9.69712 112.063 7.75548 111.937 5.73342 112.017C5.02111 112.04 4.83728 112.224 4.86026 113.063C4.96366 115.499 6.11256 117.027 8.92736 118.107C10.7771 118.819 12.6498 119.508 14.534 120.025C15.1774 120.209 15.1659 120.577 15.3727 121.071C15.8782 122.197 15.5565 123.794 17.2224 124.288C18.5321 124.69 18.8883 124.471 18.8653 123.035C18.8538 121.565 18.6815 120.106 19.1066 118.612C19.5661 117.015 20.784 115.338 22.2546 115.051C24.7362 114.545 27.2293 114.315 29.7454 114.407C30.9402 114.442 31.2504 115.384 31.664 116.326C32.5372 118.382 32.5487 120.634 32.7785 122.817C32.9623 124.529 32.9048 126.287 32.8704 128.022C32.79 130.756 31.3653 131.974 28.9641 131.491C27.2752 131.147 25.5749 130.871 23.8745 130.572C23.7481 130.561 23.6103 130.607 23.1967 130.653C26.0229 132.927 28.6309 134.915 31.7215 135.972C33.0542 136.432 34.3525 136.225 35.6737 136.19C36.3515 136.179 36.5124 135.57 36.7077 135.007C37.2362 133.433 38.2357 133.008 39.7178 132.824C42.3947 132.502 44.2215 134.283 46.301 135.535C49.2077 137.316 52.1029 139.143 55.2968 140.2C57.6751 140.993 60.0303 140.717 62.42 139.982C64.982 139.189 67.3143 137.707 69.9223 137.063C71.255 136.73 72.4384 136.788 73.5413 137.603C77.1029 140.292 81.193 141.268 85.2716 142.314C87.3281 142.842 89.3502 143.578 91.8777 143.716C89.4076 141.797 87.2247 140.119 85.0533 138.431C82.227 136.236 79.596 133.755 76.965 131.261C76.1493 130.492 75.3566 129.676 74.5409 128.906C73.6907 128.102 72.8865 128.125 71.9099 128.837C68.9113 130.986 65.9241 133.18 62.7877 135.064C60.7886 136.259 58.4448 136.052 56.2389 135.823C53.8263 135.57 51.3561 135.535 49.1617 133.996C46.772 132.307 45.1521 129.848 43.693 127.217C42.0501 124.23 40.9012 120.979 39.9361 117.636C39.7063 116.831 39.3961 116.521 38.6723 116.475C37.5923 116.406 36.5239 116.176 35.4439 116.119C34.8465 116.096 34.5822 115.648 34.2376 115.28C30.6185 111.489 27.6659 107.066 24.8051 102.562C24.7362 102.447 24.5753 102.401 24.426 102.309C24.0583 102.631 24.1962 103.033 24.2651 103.378Z" fill="white"/>
</mask>
<g mask="url(#mask11_38_23451)">
<path d="M112.569 123.012L48.3571 187.236L-15.8662 123.012L48.3571 58.789L112.569 123.012Z" fill="url(#paint1_linear_38_23451)"/>
</g>
</g>
<mask id="mask12_38_23451" style="mask-type:luminance" maskUnits="userSpaceOnUse" x="255" y="0" width="31" height="30">
<path d="M255.882 0H285.294V29.4118H255.882V0Z" fill="white"/>
</mask>
<g mask="url(#mask12_38_23451)">
<mask id="mask13_38_23451" style="mask-type:luminance" maskUnits="userSpaceOnUse" x="256" y="1" width="28" height="28">
<path d="M279.998 1.81532C278.366 2.47019 276.677 2.94124 274.632 3.63058C277.608 4.77948 277.769 7.55981 278.447 9.98398C278.608 10.5584 278.355 10.9146 278.022 11.2822C276.402 13.086 274.782 14.8898 273.208 16.7395C272.771 17.2565 272.323 17.3714 271.76 17.245C269.359 16.7395 266.958 16.211 264.556 15.7285C264.085 15.6366 263.66 15.3953 263.293 16.3029C261.742 20.0598 259.777 23.5525 257.502 26.8153C257.031 27.5047 257.031 27.5276 256.859 28.6995C261.684 25.7928 266.659 23.3686 271.324 20.3011C273.449 18.8994 275.839 18.5892 278.148 17.9688C278.757 17.808 279.067 17.5437 279.331 17.0612C280.699 14.6255 282.031 12.1784 283.398 9.7542C283.732 9.17975 283.892 8.6053 283.858 7.91597C283.801 7.01983 283.812 6.13518 283.778 5.23904C283.732 4.19354 284.398 3.03315 282.973 2.26339C282.272 1.89574 281.664 1.60852 280.997 1.60852C280.687 1.60852 280.354 1.67745 279.998 1.81532Z" fill="white"/>
</mask>
<g mask="url(#mask13_38_23451)">
<path d="M297.944 15.1539L270.623 42.4632L243.313 15.1539L270.623 -12.1554L297.944 15.1539Z" fill="#636E72"/>
</g>
</g>
<mask id="mask14_38_23451" style="mask-type:luminance" maskUnits="userSpaceOnUse" x="202" y="17" width="37" height="28">
<path d="M202.941 17.6471H238.235V44.1177H202.941V17.6471Z" fill="white"/>
</mask>
<g mask="url(#mask14_38_23451)">
<mask id="mask15_38_23451" style="mask-type:luminance" maskUnits="userSpaceOnUse" x="203" y="18" width="34" height="26">
<path d="M220.703 28.6535C215.453 31.9164 209.444 33.2606 203.757 36.5694C205.067 36.8451 206.215 36.6728 207.307 36.5005C208.157 36.3626 208.984 36.2247 209.823 36.3052C211.029 36.4086 212.224 36.443 213.442 36.6728C214.66 36.8911 215.384 37.5919 215.924 38.7064C216.579 40.0506 217.291 41.3718 217.865 42.7505C218.244 43.6466 218.532 43.6581 219.118 42.9803C220.887 40.9237 222.3 38.6719 223.3 35.9835C224.782 32.0198 226.241 27.9757 229.377 25.1609C231.227 23.5064 233.031 21.7831 234.846 20.0942C235.363 19.6002 235.869 19.0832 236.236 18.3479C230.836 21.404 225.954 25.3791 220.703 28.6535Z" fill="white"/>
</mask>
<g mask="url(#mask15_38_23451)">
<path d="M248.885 30.9973L220.002 59.892L191.107 30.9973L220.002 2.11401L248.885 30.9973Z" fill="#636E72"/>
</g>
</g>
<defs>
<linearGradient id="paint0_linear_38_23451" x1="92.4703" y1="95.5882" x2="148.353" y2="82.3529" gradientUnits="userSpaceOnUse">
<stop stop-color="#FFC45B"/>
<stop offset="1" stop-color="#636E72"/>
</linearGradient>
<linearGradient id="paint1_linear_38_23451" x1="106.769" y1="160.69" x2="-22.0375" y2="146.526" gradientUnits="userSpaceOnUse">
<stop stop-color="#FEC45A"/>
<stop offset="1" stop-color="#FEC45A"/>
</linearGradient>
<clipPath id="clip0_38_23451">
<rect width="223.529" height="217.647" fill="white" transform="translate(41.1765)"/>
</clipPath>
</defs>
</svg>
